<mxfile host="Electron" agent="Mozilla/5.0 (X11; Linux x86_64) AppleWebKit/537.36 (KHTML, like Gecko) draw.io/24.7.17 Chrome/128.0.6613.36 Electron/32.0.1 Safari/537.36" version="24.7.17">
  <diagram name="Page-1" id="Wh_UAKfa1ss6mBT9XZtX">
    <mxGraphModel dx="530" dy="397" grid="1" gridSize="10" guides="1" tooltips="1" connect="1" arrows="1" fold="1" page="1" pageScale="1" pageWidth="850" pageHeight="1100" math="1" shadow="0">
      <root>
        <mxCell id="0" />
        <mxCell id="1" parent="0" />
        <mxCell id="2Eo_G04H0s8jxTTbh5jX-20" value="$$\bar{x}, \bar{u}$$" style="text;html=1;align=center;verticalAlign=middle;resizable=0;points=[];autosize=1;strokeColor=none;fillColor=none;" parent="1" vertex="1">
          <mxGeometry x="20" y="60.00000000000001" width="130" height="30" as="geometry" />
        </mxCell>
        <mxCell id="2Eo_G04H0s8jxTTbh5jX-13" value="$$x, \tilde{\theta}$$" style="text;html=1;align=center;verticalAlign=middle;resizable=0;points=[];autosize=1;strokeColor=none;fillColor=none;shadow=1;" parent="1" vertex="1">
          <mxGeometry x="94" y="132" width="130" height="30" as="geometry" />
        </mxCell>
        <mxCell id="2Eo_G04H0s8jxTTbh5jX-1" value="NMPC" style="rounded=0;whiteSpace=wrap;html=1;fontFamily=Times New Roman;fillColor=#f9f7ed;strokeColor=#36393d;shadow=1;" parent="1" vertex="1">
          <mxGeometry x="120" y="60" width="120" height="60" as="geometry" />
        </mxCell>
        <mxCell id="2Eo_G04H0s8jxTTbh5jX-2" value="UAV" style="rounded=0;whiteSpace=wrap;html=1;fontFamily=Times New Roman;fillColor=#eeeeee;strokeColor=#36393d;shadow=1;" parent="1" vertex="1">
          <mxGeometry x="300" y="60" width="120" height="60" as="geometry" />
        </mxCell>
        <mxCell id="2Eo_G04H0s8jxTTbh5jX-4" value="MHPE" style="rounded=0;whiteSpace=wrap;html=1;fontFamily=Times New Roman;fillColor=#f9f7ed;strokeColor=#36393d;shadow=1;" parent="1" vertex="1">
          <mxGeometry x="120" y="180" width="120" height="60" as="geometry" />
        </mxCell>
        <mxCell id="2Eo_G04H0s8jxTTbh5jX-5" value="State &amp;amp; Disturbance Estimator" style="rounded=0;whiteSpace=wrap;html=1;fontFamily=Times New Roman;fillColor=#f9f7ed;strokeColor=#36393d;shadow=1;" parent="1" vertex="1">
          <mxGeometry x="300" y="180" width="120" height="60" as="geometry" />
        </mxCell>
        <mxCell id="2Eo_G04H0s8jxTTbh5jX-6" value="" style="endArrow=classic;html=1;rounded=0;entryX=0;entryY=0.5;entryDx=0;entryDy=0;exitX=1;exitY=0.5;exitDx=0;exitDy=0;shadow=1;" parent="1" target="2Eo_G04H0s8jxTTbh5jX-2" edge="1" source="2Eo_G04H0s8jxTTbh5jX-1">
          <mxGeometry width="50" height="50" relative="1" as="geometry">
            <mxPoint x="240" y="70" as="sourcePoint" />
            <mxPoint x="290" y="20" as="targetPoint" />
          </mxGeometry>
        </mxCell>
        <mxCell id="2Eo_G04H0s8jxTTbh5jX-7" value="" style="endArrow=classic;html=1;rounded=0;entryX=0;entryY=0.5;entryDx=0;entryDy=0;shadow=1;" parent="1" edge="1">
          <mxGeometry width="50" height="50" relative="1" as="geometry">
            <mxPoint x="60" y="90" as="sourcePoint" />
            <mxPoint x="120" y="89.52000000000001" as="targetPoint" />
          </mxGeometry>
        </mxCell>
        <mxCell id="2Eo_G04H0s8jxTTbh5jX-8" value="" style="endArrow=classic;html=1;rounded=0;entryX=0.5;entryY=0;entryDx=0;entryDy=0;exitX=0.5;exitY=1;exitDx=0;exitDy=0;shadow=1;" parent="1" source="2Eo_G04H0s8jxTTbh5jX-2" target="2Eo_G04H0s8jxTTbh5jX-5" edge="1">
          <mxGeometry width="50" height="50" relative="1" as="geometry">
            <mxPoint x="380" y="100" as="sourcePoint" />
            <mxPoint x="430" y="50" as="targetPoint" />
          </mxGeometry>
        </mxCell>
        <mxCell id="2Eo_G04H0s8jxTTbh5jX-9" value="" style="endArrow=classic;html=1;rounded=0;exitX=0;exitY=0.5;exitDx=0;exitDy=0;entryX=1;entryY=0.5;entryDx=0;entryDy=0;shadow=1;" parent="1" source="2Eo_G04H0s8jxTTbh5jX-5" target="2Eo_G04H0s8jxTTbh5jX-4" edge="1">
          <mxGeometry width="50" height="50" relative="1" as="geometry">
            <mxPoint x="280" y="180" as="sourcePoint" />
            <mxPoint x="330" y="130" as="targetPoint" />
          </mxGeometry>
        </mxCell>
        <mxCell id="2Eo_G04H0s8jxTTbh5jX-10" value="" style="endArrow=classic;html=1;rounded=0;exitX=0.5;exitY=0;exitDx=0;exitDy=0;entryX=0.5;entryY=1;entryDx=0;entryDy=0;shadow=1;" parent="1" source="2Eo_G04H0s8jxTTbh5jX-4" target="2Eo_G04H0s8jxTTbh5jX-1" edge="1">
          <mxGeometry width="50" height="50" relative="1" as="geometry">
            <mxPoint x="90" y="190" as="sourcePoint" />
            <mxPoint x="140" y="140" as="targetPoint" />
          </mxGeometry>
        </mxCell>
        <mxCell id="2Eo_G04H0s8jxTTbh5jX-12" value="$$x, u, w$$" style="text;html=1;align=center;verticalAlign=middle;resizable=0;points=[];autosize=1;strokeColor=none;fillColor=none;shadow=1;" parent="1" vertex="1">
          <mxGeometry x="230" y="180" width="80" height="30" as="geometry" />
        </mxCell>
        <mxCell id="2Eo_G04H0s8jxTTbh5jX-14" value="$$x$$" style="text;html=1;align=center;verticalAlign=middle;resizable=0;points=[];autosize=1;strokeColor=none;fillColor=none;shadow=1;" parent="1" vertex="1">
          <mxGeometry x="310" y="134" width="60" height="30" as="geometry" />
        </mxCell>
        <mxCell id="2Eo_G04H0s8jxTTbh5jX-15" value="$$u$$" style="text;html=1;align=center;verticalAlign=middle;resizable=0;points=[];autosize=1;strokeColor=none;fillColor=none;shadow=1;" parent="1" vertex="1">
          <mxGeometry x="240" y="60" width="60" height="30" as="geometry" />
        </mxCell>
      </root>
    </mxGraphModel>
  </diagram>
</mxfile>
